Coordinates
version=1
nRows=9
nColumns=50
inDegrees=yes

Units are S.I. units (second, meters, Newtons, ...)
If the header above contains a line with 'inDegrees', this indicates whether rotational values are in degrees (yes) or radians (no).

endheader
time	pelvis_tilt	pelvis_list	pelvis_rotation	pelvis_tx	pelvis_ty	pelvis_tz	hip_flexion_r	hip_adduction_r	hip_rotation_r	knee_angle_r	knee_angle_r_beta	ankle_angle_r	subtalar_angle_r	mtp_angle_r	hip_flexion_l	hip_adduction_l	hip_rotation_l	knee_angle_l	knee_angle_l_beta	socket_flexion	socket_adduction	socket_rotation	socket_tx	socket_ty	socket_tz	pros_ankle_rx	pros_ankle_ry	pros_ankle_rz	pros_ankle_tx	pros_ankle_ty	pros_ankle_tz	foot_flex	lumbar_extension	lumbar_bending	lumbar_rotation	arm_flex_r	arm_add_r	arm_rot_r	elbow_flex_r	pro_sup_r	wrist_flex_r	wrist_dev_r	arm_flex_l	arm_add_l	arm_rot_l	elbow_flex_l	pro_sup_l	wrist_flex_l	wrist_dev_l
      0.30105000	      5.05550587	     -2.20706913	     -4.14252594	     -0.38293771	      1.05034246	      0.35220541	      4.53734650	     -1.56132337	     -0.23548643	     63.80330925	      1.11357782	     -1.37599016	      0.00000000	      0.00000000	      0.69810727	     -0.30005518	     -8.62231319	     24.22170089	      0.42274843	      8.70787967	      3.47611871	      0.49859232	      0.00000000	      0.00000000	      0.00000000	      0.00000000	      0.00000000	      0.00000000	      0.00000000	      0.00000000	      0.00000000	     15.53309390	    -24.30775658	     -5.51455682	      4.02049345	      0.00000000	    -12.82580241	      0.00000000	     75.43982050	     89.56175657	      0.00000000	      0.00000000	      0.00000000	    -12.82580241	      0.00000000	     75.43982050	     89.56175657	      0.00000000	      0.00000000
      0.30523000	      5.17666997	     -2.37973881	     -4.03593683	     -0.37747081	      1.05115103	      0.35183016	      4.97426686	     -1.34306748	     -0.33705436	     63.82303195	      1.11392205	     -0.43315047	      0.00000000	      0.00000000	      0.06579020	     -0.43462706	     -8.63735726	     23.93461489	      0.41773784	      8.70409537	      3.44404789	      0.35111972	      0.00000000	      0.00000000	      0.00000000	      0.00000000	      0.00000000	      0.00000000	      0.00000000	      0.00000000	      0.00000000	     15.63356159	    -24.36936090	     -5.25657214	      3.90703068	      0.00000000	    -12.82750752	      0.00000000	     75.43914562	     89.56222393	      0.00000000	      0.00000000	      0.00000000	    -12.82750752	      0.00000000	     75.43914562	     89.56222393	      0.00000000	      0.00000000
      0.30941000	      5.29696125	     -2.54894119	     -3.92624069	     -0.37203535	      1.05193168	      0.35146279	      5.40780915	     -1.12211398	     -0.43733338	     63.79253613	      1.11338979	      0.51049836	      0.00000000	      0.00000000	     -0.56792005	     -0.57448972	     -8.65379825	     23.65138085	      0.41279447	      8.72516875	      3.40403407	      0.19239892	      0.00000000	      0.00000000	      0.00000000	      0.00000000	      0.00000000	      0.00000000	      0.00000000	      0.00000000	      0.00000000	     15.70145435	    -24.41892430	     -4.97383932	      3.79601088	      0.00000000	    -12.82912691	      0.00000000	     75.43850515	     89.56266766	      0.00000000	      0.00000000	      0.00000000	    -12.82912691	      0.00000000	     75.43850515	     89.56266766	      0.00000000	      0.00000000
      0.31359000	      5.41099374	     -2.72852604	     -3.83118095	     -0.36663939	      1.05269989	      0.35110448	      5.82687060	     -0.88805497	     -0.52846454	     63.68606794	      1.11153157	      1.43212903	      0.00000000	      0.00000000	     -1.17632765	     -0.73150919	     -8.67847773	     23.36501292	      0.40779641	      8.68743505	      3.34835314	      0.03887384	      0.00000000	      0.00000000	      0.00000000	      0.00000000	      0.00000000	      0.00000000	      0.00000000	      0.00000000	      0.00000000	     15.82517943	    -24.48884117	     -4.70100895	      3.67446506	      0.00000000	    -12.83093791	      0.00000000	     75.43778946	     89.56316376	      0.00000000	      0.00000000	      0.00000000	    -12.83093791	      0.00000000	     75.43778946	     89.56316376	      0.00000000	      0.00000000
      0.31777000	      5.70654818	     -2.94115683	     -3.76437941	     -0.36132934	      1.05370132	      0.35082713	      6.01533515	     -0.63241383	     -0.61860446	     63.45700049	      1.10753359	      2.22780371	      0.00000000	      0.00000000	     -2.02683420	     -0.91758129	     -8.85493738	     22.88699904	      0.39945349	      8.48661129	      3.27901439	     -0.23631967	      0.00000000	      0.00000000	      0.00000000	      0.00000000	      0.00000000	      0.00000000	      0.00000000	      0.00000000	      0.00000000	     15.97849171	    -24.82985288	     -4.45200850	      3.56020217	      0.00000000	    -12.83872145	      0.00000000	     75.43471927	     89.56529445	      0.00000000	      0.00000000	      0.00000000	    -12.83872145	      0.00000000	     75.43471927	     89.56529445	      0.00000000	      0.00000000
      0.32195000	      5.73881786	     -3.11718338	     -3.65531896	     -0.35599544	      1.05431986	      0.35043854	      6.52748742	     -0.41929714	     -0.76387756	     63.26366401	      1.10415923	      3.00389039	      0.00000000	      0.00000000	     -2.51627961	     -1.06869649	     -8.83642223	     22.66840606	      0.39563832	      8.49611170	      3.25603699	     -0.33276473	      0.00000000	      0.00000000	      0.00000000	      0.00000000	      0.00000000	      0.00000000	      0.00000000	      0.00000000	      0.00000000	     16.05528269	    -24.77936172	     -4.15699623	      3.48924428	      0.00000000	    -12.84062248	      0.00000000	     75.43397129	     89.56581434	      0.00000000	      0.00000000	      0.00000000	    -12.84062248	      0.00000000	     75.43397129	     89.56581434	      0.00000000	      0.00000000
      0.32613000	      5.78338910	     -3.30938231	     -3.55258337	     -0.35071143	      1.05493026	      0.35007159	      7.01359541	     -0.17419633	     -0.89419427	     63.00935655	      1.09972073	      3.77402991	      0.00000000	      0.00000000	     -3.01296714	     -1.25090942	     -8.83845510	     22.44842124	      0.39179886	      8.48855198	      3.20191091	     -0.44770619	      0.00000000	      0.00000000	      0.00000000	      0.00000000	      0.00000000	      0.00000000	      0.00000000	      0.00000000	      0.00000000	     16.15205098	    -24.78110599	     -3.86086915	      3.38918992	      0.00000000	    -12.84256093	      0.00000000	     75.43320923	     89.56634431	      0.00000000	      0.00000000	      0.00000000	    -12.84256093	      0.00000000	     75.43320923	     89.56634431	      0.00000000	      0.00000000
      0.33031000	      5.91008215	     -3.55945488	     -3.45628002	     -0.34555816	      1.05565831	      0.34976390	      7.37746905	      0.15483230	     -1.00737313	     62.64338581	      1.09333334	      4.44907312	      0.00000000	      0.00000000	     -3.59785406	     -1.51919151	     -8.89366845	     22.16495535	      0.38685145	      8.38250904	      3.08927560	     -0.62521578	      0.00000000	      0.00000000	      0.00000000	      0.00000000	      0.00000000	      0.00000000	      0.00000000	      0.00000000	      0.00000000	     16.29182882	    -24.93355168	     -3.49894873	      3.24476414	      0.00000000	    -12.84712484	      0.00000000	     75.43141700	     89.56759155	      0.00000000	      0.00000000	      0.00000000	    -12.84712484	      0.00000000	     75.43141700	     89.56759155	      0.00000000	      0.00000000
      0.33449000	      5.92023381	     -3.71560768	     -3.35134563	     -0.34029666	      1.05617397	      0.34937601	      7.88886698	      0.32728099	     -1.18246365	     62.29275999	      1.08721376	      5.08944400	      0.00000000	      0.00000000	     -4.04289484	     -1.63728238	     -8.88158988	     21.96160277	      0.38330228	      8.39127251	      3.11241097	     -0.71130704	      0.00000000	      0.00000000	      0.00000000	      0.00000000	      0.00000000	      0.00000000	      0.00000000	      0.00000000	      0.00000000	     16.33873404	    -24.89494862	     -3.25287659	      3.20728352	      0.00000000	    -12.84868173	      0.00000000	     75.43080677	     89.56801672	      0.00000000	      0.00000000	      0.00000000	    -12.84868173	      0.00000000	     75.43080677	     89.56801672	      0.00000000	      0.00000000
